<?xml version="1.0" encoding="UTF-8"?>
<!--Generator: Apple Native CoreSVG 326-->
<!DOCTYPE svg
PUBLIC "-//W3C//DTD SVG 1.1//EN"
       "http://www.w3.org/Graphics/SVG/1.1/DTD/svg11.dtd">
<svg version="1.1" xmlns="http://www.w3.org/2000/svg" xmlns:xlink="http://www.w3.org/1999/xlink" viewBox="0 0 21.6797 22.6196">
 <g>
  <rect height="22.6196" opacity="0" width="21.6797" x="0" y="0"/>
  <path d="M2.99072 22.6074L18.335 22.6074C20.3613 22.6074 21.3257 21.9971 21.3257 20.6543C21.3257 17.4561 17.2852 12.8296 10.6689 12.8296C4.04053 12.8296 0 17.4561 0 20.6543C0 21.9971 0.964355 22.6074 2.99072 22.6074ZM2.41699 20.7642C2.09961 20.7642 1.96533 20.6787 1.96533 20.4224C1.96533 18.4082 5.06592 14.6729 10.6689 14.6729C16.2598 14.6729 19.3604 18.4082 19.3604 20.4224C19.3604 20.6787 19.2383 20.7642 18.9209 20.7642ZM10.6689 11.3037C13.5742 11.3037 15.9424 8.72803 15.9424 5.57861C15.9424 2.45361 13.5864 0 10.6689 0C7.77588 0 5.39551 2.50244 5.39551 5.60303C5.39551 8.74023 7.76367 11.3037 10.6689 11.3037ZM10.6689 9.46045C8.88672 9.46045 7.36084 7.76367 7.36084 5.60303C7.36084 3.479 8.8623 1.84326 10.6689 1.84326C12.4878 1.84326 13.9771 3.44238 13.9771 5.57861C13.9771 7.73926 12.4634 9.46045 10.6689 9.46045Z" fill="black"/>
 </g>
</svg>
